<?xml version="1.0" encoding="UTF-8" standalone="no"?>
<!DOCTYPE svg PUBLIC "-//W3C//DTD SVG 1.1//EN" "http://www.w3.org/Graphics/SVG/1.1/DTD/svg11.dtd">
<svg version="1.1" xmlns="http://www.w3.org/2000/svg" xmlns:xlink="http://www.w3.org/1999/xlink" preserveAspectRatio="xMidYMid meet" viewBox="0 0 32 32" width="32" height="32"><defs><path d="M19.1 6.3C23.09 6.3 26.32 9.65 26.32 13.78C26.32 13.94 26.32 14.09 26.31 14.24C29.18 14.87 31.3 16.98 31.3 19.48C31.3 19.48 31.3 19.48 31.3 19.48C31.3 22.47 28.26 24.9 24.51 24.9C22.81 24.9 9.19 24.9 7.49 24.9C3.74 24.9 0.7 22.47 0.7 19.48C0.7 19.48 0.7 19.48 0.7 19.48C0.7 16.86 3.01 14.69 6.09 14.17C6.36 11.34 8.67 9.13 11.47 9.13C12.09 9.13 12.68 9.24 13.23 9.43C14.54 7.54 16.68 6.3 19.1 6.3Z" id="j2CgPlPkZd"></path><path d="M22.35 19.72L16.07 25.68L9.65 19.88L13.68 19.83L13.6 13.6L18.26 13.54L18.33 19.77L22.35 19.72Z" id="f1YEK5NzuD"></path></defs><g><g><g><use xlink:href="#j2CgPlPkZd" opacity="1" fill="#ffffff" fill-opacity="1"></use></g><g><g><use xlink:href="#f1YEK5NzuD" opacity="1" fill-opacity="0" stroke="#a1a1a1" stroke-width="1" stroke-opacity="1"></use></g></g></g></g></svg>